# xmcd
#
# Track frame offsets:
#	150
#	11670
#	21315
#	34075
#	45174
#	57380
#	68982
#	79518
#	91222
#	101310
#	113593
#	126919
#	138122
#	151475
#	162643
#
# Disc length: 2311 seconds
# Revision: 0
# Processed by: cddbd v1.5.2PL0 Copyright (c) Steve Scherf et al.
# Submitted via: dBpowerAMP V12.0
#
DISCID=b709050f
DTITLE=Lightnin' Slim - Rooster Blues
DYEAR=1960
DGENRE=Blues
TTITLE0=Rooster Blues
TTITLE1=Long Leanie Mama 
TTITLE2=My Starter Won't Start
TTITLE3=G.I. Slim
TTITLE4=Lightnin's Troubles
TTITLE5=Bed Bug Blues
TTITLE6=Hoo-Doo Blues 
TTITLE7=It's Mighty Crazy
TTITLE8=Sweet Little Woman
TTITLE9=Tom Cat Blues
TTITLE10=Feelin' Awful Blues
TTITLE11=I'm Leavin' You Baby
TTITLE12=Bad Luck trouble [Bonus 1956]
TTITLE13=I'm a Rolling Stone [Bonus 1957]
TTITLE14=I'm Evil [1963]
EXTD=
EXTT0=
EXTT1=
EXTT2=
EXTT3=
EXTT4=
EXTT5=
EXTT6=
EXTT7=
EXTT8=
EXTT9=
EXTT10=
EXTT11=
EXTT12=
EXTT13=
EXTT14=
PLAYORDER=
